<?xml version="1.0" standalone="no"?>
<!DOCTYPE svg PUBLIC "-//W3C//DTD SVG 20010904//EN"
 "http://www.w3.org/TR/2001/REC-SVG-20010904/DTD/svg10.dtd">
<svg version="1.0" xmlns="http://www.w3.org/2000/svg"
 width="700.000000pt" height="700.000000pt" viewBox="0 0 700.000000 700.000000"
 preserveAspectRatio="xMidYMid meet">
<metadata>
Created by potrace 1.11, written by Peter Selinger 2001-2013
</metadata>
<g transform="translate(0.000000,700.000000) scale(0.100000,-0.100000)"
fill="#000000" stroke="none">
<path d="M2165 6685 c-167 -30 -286 -103 -408 -251 -129 -159 -212 -342 -267
-589 -16 -71 -31 -150 -34 -175 -11 -100 -17 -159 -21 -238 l-5 -83 77 3 76 3
3 30 c14 145 31 221 71 325 86 220 283 366 509 376 278 12 478 -186 648 -639
49 -130 131 -415 160 -557 3 -14 12 -55 20 -91 19 -88 28 -140 29 -164 0 -11
-26 -73 -57 -138 -31 -65 -62 -133 -70 -150 -7 -18 -76 -167 -153 -332 -77
-165 -152 -325 -166 -355 -13 -30 -87 -188 -162 -350 -189 -406 -316 -681
-358 -770 -19 -41 -78 -169 -132 -285 -53 -115 -110 -237 -125 -270 -16 -33
-49 -105 -75 -160 -26 -55 -58 -125 -72 -155 -14 -30 -38 -82 -53 -115 -15
-33 -58 -125 -95 -205 -106 -228 -125 -270 -165 -355 -21 -44 -48 -102 -60
-130 -12 -27 -24 -53 -27 -57 -2 -5 173 -8 389 -8 l394 0 28 68 c16 37 43 96
59 132 35 79 75 168 87 195 45 109 204 468 254 578 20 42 36 79 36 81 0 3 16
39 35 80 19 42 35 78 35 81 0 2 13 32 29 67 17 35 64 142 107 238 225 514 250
570 279 635 7 17 47 107 88 200 41 94 85 193 97 220 13 28 38 86 57 130 19 44
37 83 41 87 4 4 24 -70 45 -165 22 -95 40 -179 42 -187 2 -8 11 -49 20 -90 9
-41 18 -82 20 -90 2 -8 13 -60 25 -115 11 -55 25 -116 30 -135 9 -33 11 -46
25 -115 3 -16 10 -46 15 -65 5 -19 12 -53 16 -75 3 -22 8 -43 10 -47 2 -3 13
-51 25 -105 11 -54 22 -105 24 -113 2 -8 15 -67 29 -130 13 -63 37 -164 51
-225 15 -60 28 -118 30 -128 36 -170 143 -484 212 -622 79 -156 136 -225 247
-299 185 -122 370 -166 557 -130 198 37 388 204 489 428 30 64 75 210 85 270
7 37 16 94 21 120 10 59 18 177 18 291 l1 130 -72 1 c-72 1 -73 1 -74 -25 0
-14 -2 -33 -4 -41 -1 -8 -5 -31 -8 -50 -32 -194 -103 -343 -207 -437 -42 -38
-141 -82 -213 -94 -221 -37 -442 76 -585 300 -81 127 -175 368 -251 646 -34
123 -123 497 -151 628 -7 37 -42 195 -56 252 -3 11 -9 40 -14 65 -5 25 -18 83
-29 130 -11 47 -22 96 -25 110 -2 14 -28 126 -56 250 -28 124 -53 236 -56 250
-3 14 -16 72 -29 130 -76 334 -116 507 -119 525 -23 117 -189 782 -252 1003
-128 455 -257 721 -423 874 -160 146 -335 205 -516 173z"/>
</g>
</svg>
