<?xml version="1.0" standalone="no"?>
<!DOCTYPE svg PUBLIC "-//W3C//DTD SVG 20010904//EN"
 "http://www.w3.org/TR/2001/REC-SVG-20010904/DTD/svg10.dtd">
<svg version="1.0" xmlns="http://www.w3.org/2000/svg"
 width="452.000000pt" height="452.000000pt" viewBox="0 0 452.000000 452.000000"
 preserveAspectRatio="xMidYMid meet">
<metadata>
Created by potrace 1.11, written by Peter Selinger 2001-2013
</metadata>
<g transform="translate(0.000000,452.000000) scale(0.100000,-0.100000)"
fill="#000000" stroke="none">
<path d="M1325 4324 c-49 -8 -124 -22 -165 -32 l-75 -17 0 -365 c0 -346 1
-365 19 -363 9 0 48 5 84 9 114 13 293 10 347 -5 108 -31 200 -170 320 -478
l47 -122 -227 -513 c-125 -282 -297 -670 -382 -863 -85 -192 -181 -408 -213
-480 -131 -291 -400 -904 -400 -909 0 -4 214 -5 476 -4 l477 3 66 160 c37 88
186 449 331 802 164 400 267 638 272 629 4 -7 66 -170 137 -362 71 -192 161
-437 201 -544 108 -292 169 -400 283 -506 148 -139 337 -194 646 -189 80 1
160 5 176 8 17 4 48 9 70 12 62 9 155 37 163 49 4 6 7 175 8 374 l0 364 -25
-6 c-14 -3 -60 -12 -101 -21 -132 -29 -267 -9 -319 46 -38 40 -63 99 -221 519
-83 223 -158 419 -165 435 -7 17 -27 68 -44 115 -16 47 -46 128 -66 180 -20
52 -104 275 -187 495 -159 424 -164 439 -253 665 -114 291 -243 527 -360 657
-120 135 -302 229 -500 258 -86 13 -332 12 -420 -1z m420 -179 c235 -43 382
-170 538 -465 89 -169 147 -310 402 -990 69 -184 139 -369 154 -410 16 -41 84
-221 151 -400 66 -179 126 -336 131 -350 6 -14 50 -131 99 -260 99 -266 112
-296 169 -368 72 -91 167 -132 321 -138 l95 -4 0 -187 0 -188 -65 -13 c-36 -7
-130 -14 -210 -14 -238 -3 -389 41 -490 143 -98 99 -131 163 -255 499 -47 129
-94 255 -104 280 -10 25 -81 215 -157 423 l-139 378 -84 -3 -84 -3 -54 -130
c-29 -71 -57 -139 -62 -150 -5 -11 -41 -96 -79 -190 -138 -337 -297 -725 -393
-958 -55 -131 -99 -242 -99 -247 0 -5 -7 -15 -15 -23 -12 -13 -60 -15 -289
-15 l-274 0 50 111 c28 62 63 141 78 177 15 36 41 95 59 133 17 37 31 69 31
72 0 2 13 32 29 67 53 115 218 489 471 1063 48 110 102 230 119 267 17 37 41
93 55 125 13 32 40 93 60 136 20 42 36 79 36 82 0 2 16 39 35 82 20 43 55 121
78 173 l43 94 -63 166 c-172 454 -277 582 -514 626 -45 9 -117 14 -164 12 -47
-2 -86 -1 -86 2 -1 3 -2 87 -3 188 l-1 183 36 9 c20 6 63 13 95 16 33 4 61 8
63 10 6 5 249 -5 286 -11z"/>
</g>
</svg>
